HIERARCHY
ROOT Hips
{
	OFFSET -3.958830 18.904000 13.208200
	CHANNELS 6 Xposition Yposition Zposition Zrotation Yrotation Xrotation 
	JOINT LHipJoint
	{
		OFFSET 0.000000 0.000000 0.000000
		CHANNELS 3 Zrotation Yrotation Xrotation
		JOINT LeftUpLeg
		{
			OFFSET 1.800000 -1.400000 0.085000
			CHANNELS 3 Zrotation Yrotation Xrotation
			JOINT LeftLeg
			{
				OFFSET 2.215000 -6.000000 0.000000
				CHANNELS 3 Zrotation Yrotation Xrotation
				JOINT LeftFoot
				{
					OFFSET 2.500000 -6.900000 0.000000
					CHANNELS 3 Zrotation Yrotation Xrotation
					JOINT LeftToeBase
					{
						OFFSET 0.200000 -0.500000 1.950000
						CHANNELS 3 Zrotation Yrotation Xrotation
						End Site
						{
							OFFSET 0.000000 0.000000 0.000000
						}
					}
				}
			}
		}
	}
	JOINT RHipJoint
	{
		OFFSET 0.000000 0.000000 0.000000
		CHANNELS 3 Zrotation Yrotation Xrotation
		JOINT RightUpLeg
		{
			OFFSET -1.800000 -1.400000 0.085000
			CHANNELS 3 Zrotation Yrotation Xrotation
			JOINT RightLeg
			{
				OFFSET -2.215000 -6.000000 0.000000
				CHANNELS 3 Zrotation Yrotation Xrotation
				JOINT RightFoot
				{
					OFFSET -2.500000 -6.900000 0.000000
					CHANNELS 3 Zrotation Yrotation Xrotation
					JOINT RightToeBase
					{
						OFFSET -0.200000 -0.500000 1.950000
						CHANNELS 3 Zrotation Yrotation Xrotation
						End Site
						{
							OFFSET 0.000000 0.000000 0.000000
						}
					}
				}
			}
		}
	}
	JOINT LowerBack
	{
		OFFSET 0.000000 0.000000 0.000000
		CHANNELS 3 Zrotation Yrotation Xrotation
		JOINT Spine
		{
			OFFSET -0.087000 1.940000 -0.288900
			CHANNELS 3 Zrotation Yrotation Xrotation
			JOINT Spine1
			{
				OFFSET 0.000000 1.950000 0.060000
				CHANNELS 3 Zrotation Yrotation Xrotation
				JOINT Neck
				{
					OFFSET 0.000000 0.000000 0.000000
					CHANNELS 3 Zrotation Yrotation Xrotation
					JOINT Neck1
					{
						OFFSET 0.000000 1.600000 0.340000
						CHANNELS 3 Zrotation Yrotation Xrotation
						JOINT Head
						{
							OFFSET 0.000000 1.667000 -0.240000
							CHANNELS 3 Zrotation Yrotation Xrotation
							End Site
							{
								OFFSET 0.000000 0.000000 0.000000
							}
						}
					}
				}
				JOINT LeftShoulder
				{
					OFFSET 0.000000 0.000000 0.000000
					CHANNELS 3 Zrotation Yrotation Xrotation
					JOINT LeftArm
					{
						OFFSET 2.700000 1.550000 -0.730000
						CHANNELS 3 Zrotation Yrotation Xrotation
						JOINT LeftForeArm
						{
							OFFSET 5.450000 0.000000 0.000000
							CHANNELS 3 Zrotation Yrotation Xrotation
							JOINT LeftHand
							{
								OFFSET 3.450000 0.000000 0.000000
								CHANNELS 3 Zrotation Yrotation Xrotation
								JOINT LeftHandIndex1
								{
									OFFSET 0.750000 0.000000 0.000000
									CHANNELS 3 Zrotation Yrotation Xrotation
									End Site
									{
										OFFSET 0.000000 0.000000 0.000000
									}
								}
							}
						}
					}
				}
				JOINT RightShoulder
				{
					OFFSET 0.000000 0.000000 0.000000
					CHANNELS 3 Zrotation Yrotation Xrotation
					JOINT RightArm
					{
						OFFSET -2.700000 1.550000 -0.730000
						CHANNELS 3 Zrotation Yrotation Xrotation
						JOINT RightForeArm
						{
							OFFSET -5.450000 0.000000 0.000000
							CHANNELS 3 Zrotation Yrotation Xrotation
							JOINT RightHand
							{
								OFFSET -3.450000 0.000000 0.000000
								CHANNELS 3 Zrotation Yrotation Xrotation
								JOINT RightHandIndex1
								{
									OFFSET -0.750000 0.000000 0.000000
									CHANNELS 3 Zrotation Yrotation Xrotation
									End Site
									{
										OFFSET 0.000000 0.000000 0.000000
									}
								}
							}
						}
					}
				}
			}
		}
	}
}
MOTION
Frames: 13
Frame Time: 0.016667
-1.702790 16.297490 -10.563830 0.162539 -6.354522 17.328330 -15.130072 13.889062 3.268376 1.020097 -3.891193 -18.582740 -1.337019 7.377014 35.292029 0.064301 5.859673 2.372226 0.347840 0.323260 0.307670 18.173179 -10.975688 2.682941 -0.795214 2.895502 -18.938435 -0.424871 -4.780220 32.202170 -0.344518 -4.122859 2.829889 0.238440 -0.073680 0.093970 -3.347665 -2.587429 -7.562667 6.238534 -2.563900 14.918235 -3.422731 -1.308353 0.014134 1.640801 -4.467315 -7.613292 -8.966926 6.636480 28.588654 -3.395930 7.033170 -15.532300 -35.138623 -11.042979 2.344193 -38.130372 -7.482398 -1.148720 -13.927884 -13.912464 0.657255 -3.631035 3.060206 0.272340 -0.022560 0.145240 0.049550 32.049572 14.265549 5.199595 45.907502 7.150105 -5.276862 26.075082 28.389864 3.879899 2.357543 -1.454241 -0.055270 0.119900 -0.089010 -0.154220 
-1.712040 16.191040 -10.586490 0.429885 -8.394661 16.371284 -15.206030 13.582132 3.841890 2.102073 -5.926793 -23.316430 -3.331105 10.360780 45.180563 0.475474 7.902461 1.643786 0.349970 0.321010 0.318420 18.128344 -10.770855 2.566999 -1.547169 3.251364 -19.221123 -1.035113 -4.893526 35.050448 -0.428859 -4.444724 2.711198 0.216230 -0.109300 0.088940 -3.155708 -2.672963 -7.966665 4.488417 -1.890147 18.273275 -3.060221 -0.414913 -2.380498 1.552009 -4.834029 -7.947076 -9.999107 7.212976 30.495398 -3.014400 7.280290 -16.223750 -37.233001 -11.078125 2.278053 -35.357801 -5.786807 -1.574673 -11.500904 -11.675739 0.230911 -3.580591 3.025789 0.313760 -0.065840 0.182170 0.042750 34.455672 15.135396 5.339664 43.543530 6.758079 -5.223385 23.696579 24.565034 2.875308 2.375535 -1.393407 -0.045330 0.116600 -0.093500 -0.158640 
-1.731300 16.124130 -10.612020 0.790267 -9.776136 14.909495 -15.341999 13.058874 4.615959 4.470746 -8.226532 -29.525603 -5.865211 14.794340 55.941480 1.049622 10.467820 0.803331 0.357220 0.322710 0.333360 18.088322 -10.398491 2.415860 -1.749306 3.846532 -19.673508 -2.130178 -4.976500 39.301088 -0.569949 -4.964894 2.529411 0.187970 -0.165630 0.077280 -2.934250 -2.777061 -8.440745 2.564419 -0.911162 22.383602 -2.142494 0.781940 -4.557274 1.435956 -5.457463 -8.831174 -11.903429 7.263167 33.202993 -2.864320 6.739790 -17.181490 -37.935357 -11.531661 2.326317 -33.444897 -4.459670 -2.150486 -9.461878 -11.406229 0.073024 -3.510390 2.990431 0.369130 -0.129860 0.232010 0.033430 35.646158 16.728732 6.074868 40.799409 5.906028 -5.528284 22.354359 22.338817 2.400456 2.386448 -1.337107 -0.028140 0.114100 -0.101190 -0.162920 
-1.759570 16.085490 -10.590180 1.373176 -10.829502 12.920410 -15.461532 12.528466 5.342856 7.354427 -9.815531 -34.996773 -8.509720 19.886418 64.760769 1.628833 12.813653 0.110219 0.370700 0.328680 0.349600 18.066696 -10.118278 2.195436 -2.432222 4.061297 -18.920100 -2.680370 -5.263204 42.537811 -0.707477 -5.445293 2.364032 0.164040 -0.226650 0.063980 -2.782911 -2.745602 -8.810994 0.872428 0.255526 25.791250 -1.442447 2.085802 -5.821766 1.370028 -6.086843 -9.924604 -14.254898 7.381259 36.943478 -2.440820 5.799670 -17.627150 -37.351447 -11.904318 2.511803 -32.116957 -2.921627 -2.945516 -7.510986 -12.976340 0.048767 -3.432173 2.967652 0.427710 -0.199340 0.283560 0.023940 35.455428 18.262500 6.985586 38.372004 4.799211 -5.942382 22.634391 21.825569 2.442606 2.393497 -1.298134 -0.009280 0.111140 -0.108990 -0.166770 
-1.788180 16.062260 -10.540760 2.182312 -11.477774 11.059435 -15.562388 12.034976 5.984110 10.213715 -10.734952 -39.985254 -11.071733 24.716861 70.743689 2.099344 14.617338 -0.363552 0.379130 0.330960 0.363500 18.053290 -9.975996 1.918282 -3.397878 3.860064 -17.258854 -3.308502 -5.377224 44.267457 -0.795573 -5.748209 2.263703 0.148480 -0.259380 0.056480 -2.672058 -2.555346 -9.050071 -1.045295 1.755560 28.190700 -0.996767 3.512455 -6.245682 1.380577 -5.987199 -10.759852 -14.914609 7.060002 39.917501 -1.684850 4.830180 -17.599330 -36.284668 -12.338559 2.766060 -30.585101 -1.555624 -3.858926 -5.193445 -15.944846 0.032153 -3.381267 2.959435 0.462920 -0.240880 0.316260 0.017920 34.573566 19.374430 7.792231 35.916347 3.570644 -6.320408 24.239306 22.645866 2.840263 2.388078 -1.291405 0.002390 0.113740 -0.114450 -0.167080 
-1.809730 16.067960 -10.467800 3.281742 -11.604810 9.168850 -15.630715 11.666077 6.507449 12.486458 -11.228024 -43.901095 -13.897947 28.698906 73.614599 2.409596 15.791098 -0.648554 0.379770 0.327270 0.367900 18.042537 -9.965091 1.595787 -4.974655 3.113817 -14.252503 -2.976443 -5.712191 43.333912 -0.806422 -5.738283 2.271986 0.138480 -0.275120 0.051030 -2.601566 -2.363754 -9.163501 -2.679525 3.173822 29.857586 -0.777946 4.774992 -5.963821 1.384291 -6.029152 -11.426804 -15.696540 7.155975 42.139371 -1.104850 4.307710 -17.583730 -34.587508 -12.540854 2.940767 -28.850551 -0.528636 -4.691130 -3.567718 -19.923854 0.051329 -3.344976 2.955270 0.493610 -0.266700 0.337000 0.011150 33.006367 20.205151 8.572637 33.278349 2.350147 -6.600256 26.538318 24.289490 3.528626 2.376332 -1.294978 0.002920 0.122890 -0.109110 -0.169400 
-1.806710 16.087990 -10.376510 4.234221 -11.354899 7.737820 -15.663972 11.316387 6.954803 14.042674 -11.688239 -47.595644 -17.321922 31.619286 73.673861 2.590174 16.411100 -0.778195 0.368360 0.312990 0.357270 18.055533 -10.011137 1.306853 -6.922065 2.161072 -10.724962 -1.893944 -6.219253 40.560322 -0.760194 -5.561276 2.346390 0.128990 -0.266560 0.047320 -2.609265 -2.104742 -9.224342 -3.411178 4.179878 30.918757 -1.303734 5.736679 -5.019620 1.462587 -5.922026 -11.827821 -15.695562 6.798626 42.874188 -0.665250 3.713450 -17.128920 -32.393302 -12.648985 3.106449 -26.741137 0.379356 -5.425372 -2.186034 -24.464942 0.073804 -3.328611 2.965233 0.496120 -0.267360 0.333210 0.009470 30.591387 20.720836 9.168858 30.948901 1.475440 -6.733987 29.080043 26.595469 4.463296 2.373495 -1.314785 -0.000550 0.129950 -0.100520 -0.165210 
-1.789020 16.129680 -10.255280 5.402587 -10.606554 6.583486 -15.677149 11.029686 7.272372 14.771263 -12.289571 -50.624557 -21.265313 33.115598 71.027861 2.623636 16.457070 -0.775130 0.349360 0.287340 0.349930 18.073175 -10.073597 1.090931 -9.381057 1.340920 -7.484342 -0.562637 -6.761198 37.231467 -0.700337 -5.388340 2.415600 0.118220 -0.254130 0.048770 -2.643110 -1.867823 -9.245143 -4.002205 4.866634 31.471711 -2.259319 6.277371 -3.837189 1.632141 -5.575410 -11.967992 -14.867516 6.309507 42.561277 -0.671570 3.575260 -16.652560 -30.239818 -12.655170 3.124306 -24.352087 0.837549 -6.023399 0.549250 -28.689846 -0.251875 -3.335305 2.973774 0.488060 -0.253930 0.318380 0.000380 27.924200 20.728047 9.590241 28.977783 0.537412 -6.845993 32.090808 29.460149 5.718836 2.376826 -1.346988 -0.008010 0.126820 -0.088210 -0.168030 
-1.772950 16.203030 -10.115100 6.617168 -8.811425 5.610241 -15.683464 10.887272 7.395926 14.350852 -13.276770 -52.616941 -23.310776 32.260769 67.871423 2.518731 15.999601 -0.661769 0.340440 0.280920 0.330650 18.084007 -10.101249 0.996325 -11.291739 0.758809 -4.864259 0.759920 -7.257981 34.406218 -0.668762 -5.305916 2.455524 0.116950 -0.235250 0.050080 -2.664448 -1.821398 -9.225536 -4.574420 4.983035 31.872721 -2.742750 6.164565 -2.522562 1.607479 -5.713189 -12.027272 -15.004771 6.134172 41.634490 -0.222230 3.203580 -16.481330 -27.900218 -12.451761 3.128123 -22.635987 0.981436 -6.484304 4.476497 -32.348612 -1.065506 -3.338774 2.973175 0.474500 -0.243960 0.304340 0.004290 25.508631 20.591479 9.850373 26.886137 -0.088566 -6.828587 34.539634 32.051874 6.975460 2.382055 -1.378250 -0.008600 0.128790 -0.080910 -0.157620 
-1.742500 16.294580 -9.956750 7.578509 -7.701733 5.134704 -15.631891 10.753505 7.401401 12.836476 -14.129027 -53.988771 -24.844116 29.877099 62.848247 2.280431 14.999050 -0.412369 0.336080 0.280780 0.306120 18.134157 -10.197664 1.004584 -12.819956 0.371691 -2.413516 1.726037 -7.390030 30.997637 -0.633333 -5.174436 2.518507 0.121440 -0.210870 0.048260 -2.813915 -1.577631 -9.172389 -4.142017 4.922526 31.657636 -4.424090 6.191132 -1.204729 1.651747 -6.063613 -12.003834 -15.361218 5.970074 39.946587 0.461380 2.693520 -16.396450 -25.483724 -11.799741 2.872943 -20.713631 0.907334 -6.862374 10.804616 -35.106617 -2.697161 -3.348173 2.957611 0.453470 -0.233500 0.285210 0.017890 22.748733 20.058595 10.062608 25.576791 -0.785572 -6.864281 37.534643 35.876357 8.876082 2.385888 -1.428911 -0.009010 0.133460 -0.079660 -0.141720 
-1.718280 16.397010 -9.772480 8.160280 -7.244617 4.723426 -15.550523 10.715956 7.255693 10.110622 -14.629223 -54.344199 -23.607164 25.772976 57.716807 1.898053 13.500326 -0.034872 0.327500 0.276910 0.275330 18.195273 -10.339900 1.109211 -13.581770 0.174205 -0.113157 1.983172 -7.148919 27.597450 -0.603814 -5.040549 2.587548 0.122410 -0.179690 0.047360 -3.008983 -1.295467 -9.069262 -3.224633 4.810683 30.803550 -6.295126 6.284388 0.165749 1.659779 -6.753100 -12.005578 -16.439352 6.497537 38.579017 1.159140 2.503150 -15.858190 -22.980587 -10.451770 2.662124 -19.704829 1.805044 -7.413354 19.279206 -37.695895 -5.335898 -3.359236 2.932064 0.428450 -0.219280 0.262050 0.031150 19.973105 19.078145 10.074820 25.046101 -1.353290 -7.007483 41.130894 41.037720 11.703715 2.385283 -1.493583 -0.008390 0.136810 -0.074390 -0.122160 
-1.687690 16.499250 -9.566560 8.146865 -6.829850 4.658509 -15.475178 10.776429 6.998922 6.662191 -14.794013 -53.665679 -19.841411 20.726428 52.719743 1.386941 11.603166 0.471860 0.318270 0.270690 0.256340 18.246447 -10.492094 1.259233 -13.280874 0.039737 1.424904 1.452785 -6.642311 24.862153 -0.575006 -4.903163 2.656340 0.132590 -0.147860 0.046100 -3.169628 -1.069508 -8.901879 -2.116576 4.706293 29.128042 -7.686372 6.390088 1.823130 1.704393 -7.061555 -11.736461 -16.384558 6.585557 36.648603 1.204590 2.603270 -15.785130 -19.790682 -8.456105 2.357889 -19.107918 2.766162 -7.729026 25.517826 -41.178756 -7.873369 -3.369847 2.899210 0.406620 -0.194250 0.234360 0.036500 16.423871 17.174063 9.700499 24.846148 -1.517079 -6.910571 46.037528 47.143968 15.864354 2.371643 -1.566927 -0.020880 0.147260 -0.064260 -0.116510 
-1.664390 16.607340 -9.351600 7.799186 -4.911384 4.609305 -15.380280 11.071170 6.530215 1.853529 -14.534290 -49.879875 -15.241263 14.824684 45.002445 0.747131 8.921559 1.274819 0.307690 0.259900 0.249810 18.278207 -10.705847 1.479069 -11.522095 -0.193243 1.966905 0.537609 -6.158408 23.947560 -0.563444 -4.823009 2.698328 0.140420 -0.116370 0.050470 -3.320053 -0.996353 -8.654326 -0.848804 4.005169 27.504146 -8.535804 5.800759 3.318164 1.740570 -6.915288 -11.393151 -15.466366 6.737652 35.214964 0.910870 3.184920 -15.744590 -16.779962 -6.537947 2.141683 -18.076515 3.827558 -7.734494 30.686614 -43.576635 -10.154685 -3.394869 2.864871 0.390770 -0.163330 0.211110 0.035990 13.162030 14.759341 9.149101 24.664440 -1.605847 -6.624698 50.274336 53.732920 20.723809 2.351617 -1.633075 -0.037060 0.158670 -0.052000 -0.119110 
